# xmcd CD database file
#
# Track frame offsets:
#	150
#	21864
#	33946
#	49481
#	69213
#	84920
#	100949
#	117154
#	134681
#	151133
#	163028
#	179445
#	196582
#	209604
#	221361
#	235438
#	252907
#	268473
#	283898
#	304413
#
# Disc length: 4307 seconds
#
# Revision: 0
# Processed by: cddbd v1.5.2PL0 Copyright (c) Steve Scherf et al.
# Submitted via: CDex 2.10
#
DISCID=2910d114
DTITLE=Various Artist - Hott Country 46
DYEAR=1999
DGENRE=Country
TTITLE0=Dixie Chicks - Cowboy Take Me Away
TTITLE1=Alecia Eliot - I`m Diggin` It
TTITLE2=Travis Tritt With Geroge Thorogood - Move It On Over
TTITLE3=Julian Austin - Back In Your Life
TTITLE4=Reba - What Do You Say
TTITLE5=Randy Travis - A Man Ain`t Made Of Stone
TTITLE6=Lonestar - Smile
TTITLE7=Brad Paisley - He Didn`t Have To Be 
TTITLE8=Kenny Chesney - She Thinks My Tractor`s Sexy
TTITLE9=Sherrie Austin - Little Bird
TTITLE10=Chris LeDoux Stampede
TTITLE11=Deryl Dadd - Sundown
TTITLE12=Shana Pretrone - Something Real
TTITLE13=Merle Haggard ft. Jewel - That`s The Way Love Goes
TTITLE14=Alan Jackson - Pop A Top
TTITLE15=Cherly Wright - It Was
TTITLE16=John Berry - Power Windows
TTITLE17=Tara Lyn Hart - Stuff That Matters
TTITLE18=Tracy Bryd - Put Your Hands In Mine
TTITLE19=Faith Hill - Breathe
EXTD=YEAR: 1999
EXTT0=
EXTT1=
EXTT2=
EXTT3=
EXTT4=
EXTT5=
EXTT6=
EXTT7=
EXTT8=
EXTT9=
EXTT10=
EXTT11=
EXTT12=
EXTT13=
EXTT14=
EXTT15=
EXTT16=
EXTT17=
EXTT18=
EXTT19=
PLAYORDER=
